<?xml version="1.0" standalone="no"?>
<!DOCTYPE svg PUBLIC "-//W3C//DTD SVG 20010904//EN"
 "http://www.w3.org/TR/2001/REC-SVG-20010904/DTD/svg10.dtd">
<svg version="1.0" xmlns="http://www.w3.org/2000/svg"
 width="700.000000pt" height="700.000000pt" viewBox="0 0 700.000000 700.000000"
 preserveAspectRatio="xMidYMid meet">
<metadata>
Created by potrace 1.11, written by Peter Selinger 2001-2013
</metadata>
<g transform="translate(0.000000,700.000000) scale(0.100000,-0.100000)"
fill="#000000" stroke="none">
<path d="M4820 6500 c-91 -31 -208 -71 -260 -90 -94 -32 -347 -119 -960 -330
-173 -59 -434 -149 -580 -200 -146 -50 -269 -93 -275 -94 -5 -2 -17 -6 -25 -9
-8 -4 -87 -31 -175 -61 -88 -30 -254 -87 -370 -127 -115 -40 -259 -89 -320
-110 -60 -20 -229 -78 -375 -129 -146 -50 -409 -141 -585 -202 -394 -135 -405
-139 -432 -149 -21 -8 -20 -11 44 -196 97 -283 172 -502 193 -563 10 -30 55
-161 100 -290 45 -129 109 -314 142 -410 33 -96 77 -224 97 -285 79 -226 160
-463 186 -540 14 -44 30 -89 35 -100 5 -11 20 -56 35 -100 15 -44 67 -197 117
-340 49 -143 118 -343 153 -445 129 -378 196 -571 275 -800 45 -129 100 -291
123 -358 39 -119 42 -124 67 -119 14 2 151 48 305 101 154 54 298 103 320 111
22 7 153 52 290 100 138 47 288 99 335 115 47 16 139 48 205 71 66 22 248 85
405 139 748 257 944 325 1060 365 69 24 190 66 270 93 229 79 261 89 520 179
135 46 369 127 520 179 151 52 280 96 287 98 8 4 -8 64 -53 193 -36 103 -76
220 -89 258 -13 39 -62 183 -110 320 -48 138 -111 320 -140 405 -29 85 -99
288 -155 450 -56 162 -105 306 -110 320 -17 52 -122 354 -210 610 -50 146 -98
283 -105 305 -12 36 -165 479 -178 515 -3 8 -18 51 -33 95 -14 44 -44 130 -65
190 -105 304 -225 653 -261 760 -22 66 -43 123 -47 126 -3 3 -80 -20 -171 -51z"/>
</g>
</svg>
